<svg xmlns="http://www.w3.org/2000/svg" version="1.1" xmlns:xlink="http://www.w3.org/1999/xlink" xmlns:svgjs="http://svgjs.dev/svgjs" width="1000" height="297" viewBox="0 0 1000 297"><g transform="matrix(1,0,0,1,-0.6060606060606233,0.30579600680647445)"><svg viewBox="0 0 396 118" data-background-color="#f5f5f5" preserveAspectRatio="xMidYMid meet" height="297" width="1000" xmlns="http://www.w3.org/2000/svg" xmlns:xlink="http://www.w3.org/1999/xlink"><defs></defs><g id="tight-bounds" transform="matrix(1,0,0,1,0.2400000000000091,-0.12149470977496435)"><svg viewBox="0 0 395.52 118.2429894195499" height="118.2429894195499" width="395.52"><g><svg viewBox="0 0 395.52 118.2429894195499" height="118.2429894195499" width="395.52"><g><svg viewBox="0 0 397.49759999999986 118.83420436664763" height="118.2429894195499" width="395.52"><g><rect width="397.49759999999986" height="3.639734727767436" x="0" y="65.30605470745802" fill="#4141ab" opacity="1" stroke-width="0" stroke="transparent" fill-opacity="1" class="rect-o-0" data-fill-palette-color="secondary" rx="1%" id="o-0" data-palette-color="#4141ab"></rect></g><g transform="matrix(1,0,0,1,0.9887999999999693,78.4738908168156)"><svg viewBox="0 0 395.5199999999999 40.36031354983203" height="40.36031354983203" width="395.5199999999999"><g><svg viewBox="0 0 395.5199999999999 40.36031354983203" height="40.36031354983203" width="395.5199999999999"><g><svg viewBox="0 0 395.5199999999999 40.36031354983203" height="40.36031354983203" width="395.5199999999999"><g transform="matrix(1,0,0,1,0,0)"><svg width="395.5199999999999" viewBox="1 -36.20000076293945 357.17999267578125 36.45000076293945" height="40.36031354983203" data-palette-color="#5716ce"><path d="M6.05-17.25L6.05-20.1 6.1-25.5Q6.1-29.3 5.8-31.45L5.8-31.45Q5.65-32.7 4.48-33.4 3.3-34.1 2.43-34.1 1.55-34.1 1.28-34.43 1-34.75 1-34.95L1-34.95Q1-35.5 2.4-35.5L2.4-35.5 8.05-35.3 12.45-35.4Q13.55-35.4 13.55-34.7L13.55-34.7Q13.55-33.85 11.8-33.85L11.8-33.85Q10.8-33.85 10.35-31.8 9.9-29.75 9.9-27.6L9.9-27.6 9.9-25.75 9.8-21.15Q9.8-19.9 10.1-19.55 10.4-19.2 11.5-19.2L11.5-19.2 19.7-19.25Q19.7-19.25 29.15-19.15L29.15-19.15Q29.7-19.15 29.7-26.1L29.7-26.1 29.7-28.8Q29.7-32.55 28.2-33.4L28.2-33.4Q27.6-33.75 26.98-33.85 26.35-33.95 25.93-34.13 25.5-34.3 25.5-34.8 25.5-35.3 27.45-35.3L27.45-35.3 32.3-35.2 36.2-35.3Q37.35-35.3 37.35-34.65 37.35-34 36.65-34L36.65-34Q35.25-34 34.52-33.15 33.8-32.3 33.8-30.9L33.8-30.9 33.55-11.25 33.55-9.4 33.75-4.8Q33.75-1.55 37.95-1.1L37.95-1.1Q38.55-1.1 38.55-0.55L38.55-0.55Q38.55-0.2 38.05-0.1 37.55 0 36.1 0L36.1 0 32.25-0.25 27.55 0 26.7 0Q26 0 25.88-0.2 25.75-0.4 25.75-0.68 25.75-0.95 26.25-1.2 26.75-1.45 27.35-1.6 27.95-1.75 28.5-2.2L28.5-2.2Q29.55-2.95 29.55-6.9L29.55-6.9 29.7-15.75Q29.7-16.5 29.1-16.8 28.5-17.1 27.15-17.1 25.8-17.1 23.1-17L23.1-17 20.4-16.95 11.2-17.1Q10.45-17.1 10.2-16.8 9.95-16.5 9.95-15.25L9.95-15.25 9.75-9.1 9.75-6.95Q9.75-4.8 10.15-3.75 10.55-2.7 12.1-1.7L12.1-1.7Q12.5-1.45 13.55-1.45L13.55-1.45Q15.2-1.45 15.2-0.9L15.2-0.9Q15.2 0 13.6 0L13.6 0 9.45-0.2 4.05 0.05Q1.7 0.05 1.7-0.7L1.7-0.7Q1.7-1.4 3.25-1.6L3.25-1.6Q3.85-1.65 4.5-2.23 5.15-2.8 5.35-3.78 5.55-4.75 5.8-9.05 6.05-13.35 6.05-17.25L6.05-17.25ZM45.35-11.55L45.35-17.75 45.5-26.4Q45.5-27.75 45.4-30.95L45.4-30.95Q45.35-32.4 44.15-33.2 42.95-34 41.35-34.05L41.35-34.05Q40.55-34.05 40.55-34.95L40.55-34.95Q40.55-35.65 41.95-35.65L41.95-35.65 43.3-35.55 55.5-35.3 65.5-35.5Q66.45-35.5 66.45-34.35L66.45-34.35Q66.45-34.05 66.15-32.38 65.85-30.7 65.85-29.75L65.85-29.75Q65.85-28.15 65.07-28.15 64.3-28.15 64.3-29.35 64.3-30.55 63.45-31.65 62.6-32.75 61.35-32.8L61.35-32.8Q56.85-33.15 54.45-33.15L54.45-33.15 53.15-33.15Q50.55-33.15 50.15-32.8L50.15-32.8Q49.4-32.15 49.4-21.75L49.4-21.75Q49.4-19.25 50.35-19.2L50.35-19.2 55.25-19.2Q58.25-19.2 59.25-19.4L59.25-19.4Q61.85-19.9 62.2-22L62.2-22Q62.35-22.85 62.85-22.85 63.35-22.85 63.45-22.7 63.55-22.55 63.55-22.05L63.55-22.05 63.15-16.8 63.3-13.75Q63.3-12.5 62.95-12.5L62.95-12.5Q62.2-12.5 61.85-13.7L61.85-13.7Q61.15-15.8 60.6-16.15L60.6-16.15Q59.55-16.85 56.95-16.85L56.95-16.85 53.35-16.85 51.75-16.9 51.4-16.9Q49.35-16.9 49.35-15.95L49.35-15.95 49.25-8.75 49.25-6.75Q49.25-3.15 50.47-2.78 51.7-2.4 52.6-2.4L52.6-2.4Q60.1-2.4 63.45-3.6L63.45-3.6Q66.4-4.7 67.05-5.9L67.05-5.9Q67.65-7.15 68.15-7.15L68.15-7.15Q68.75-7.15 68.75-6.3L68.75-6.3Q68.75-4.15 66.6-1.95 64.45 0.25 62.85 0.25L62.85 0.25Q59.25 0.25 54.72 0 50.2-0.25 49.1-0.25L49.1-0.25 42.3 0.2Q41.25 0.2 41.25-0.3L41.25-0.3 41.25-0.9Q41.25-1.2 41.75-1.3L41.75-1.3Q42.3-1.35 43.45-1.9 44.6-2.45 44.97-4.2 45.35-5.95 45.35-11.55L45.35-11.55ZM80.65 0.05L76.5 0 72.2 0.2Q70.75 0.2 70.75-0.4L70.75-0.4Q70.75-1.1 71.5-1.35L71.5-1.35Q73.09-1.95 74.3-4.03 75.5-6.1 80.32-16.57 85.15-27.05 88.9-35.05L88.9-35.05Q89.25-35.8 89.52-36 89.8-36.2 90.32-36.2 90.84-36.2 91-36 91.15-35.8 91.55-34.65 91.95-33.5 92.17-32.9 92.4-32.3 92.9-30.95 93.4-29.6 94.5-26.9 95.59-24.2 99.52-15.08 103.45-5.95 104.05-4.73 104.65-3.5 105.7-2.63 106.75-1.75 107.52-1.68 108.3-1.6 108.82-1.43 109.34-1.25 109.34-0.65L109.34-0.65Q109.34 0.1 108 0.1L108 0.1 103.5-0.2 98.84 0Q97.3 0 96.87-0.13 96.45-0.25 96.45-0.65 96.45-1.05 96.84-1.28 97.25-1.5 97.7-1.58 98.15-1.65 98.55-2.02 98.95-2.4 98.95-3.28 98.95-4.15 97.7-7.55 96.45-10.95 95.59-12.55L95.59-12.55Q95.15-13.4 93.55-13.4L93.55-13.4 87.5-13.3 84.84-13.3Q82.59-13.3 82.02-13.05 81.45-12.8 81.07-12 80.7-11.2 80-9.78 79.3-8.35 79.05-7.8 78.8-7.25 78.45-6.4L78.45-6.4Q77.8-4.9 77.8-3.9 77.8-2.9 78.37-2.3 78.95-1.7 79.65-1.6L79.65-1.6Q81.5-1.45 81.5-0.65L81.5-0.65Q81.5-0.3 81.34-0.13 81.2 0.05 80.65 0.05L80.65 0.05ZM88.55-28.5Q88.09-28.5 85.7-22.98 83.3-17.45 83.3-16.85 83.3-16.25 83.75-16.1 84.2-15.95 85.84-15.95L85.84-15.95 87.4-15.95 92.15-16Q94.09-16 94.09-16.73 94.09-17.45 91.65-22.98 89.2-28.5 88.55-28.5L88.55-28.5ZM116.09-11.55L116.09-17.75 116.24-26.4Q116.24-27.75 116.14-30.95L116.14-30.95Q116.09-32.4 114.89-33.2 113.69-34 112.64-34.02 111.59-34.05 111.47-34.23 111.34-34.4 111.34-34.75L111.34-34.75Q111.34-35.65 112.69-35.65L112.69-35.65 114.04-35.55 118.39-35.35 123.64-35.55Q124.49-35.55 124.49-35.05L124.49-35.05Q124.49-34.35 123.89-34.13 123.29-33.9 122.57-33.83 121.84-33.75 121.17-32.73 120.49-31.7 120.39-29.7 120.29-27.7 120.14-18.75 119.99-9.8 119.99-8.75L119.99-8.75 119.99-6.75Q119.99-3.15 121.22-2.78 122.44-2.4 123.34-2.4L123.34-2.4Q130.84-2.4 134.14-3.6L134.14-3.6Q137.14-4.7 137.74-5.9L137.74-5.9Q138.39-7.15 138.89-7.15L138.89-7.15Q139.49-7.15 139.49-6.3L139.49-6.3Q139.49-4.15 137.34-1.95 135.19 0.25 133.59 0.25L133.59 0.25Q129.99 0.25 125.47 0 120.94-0.25 119.84-0.25L119.84-0.25 113.59 0.15Q112.14 0.15 112.14-0.45L112.14-0.45Q112.14-0.8 112.42-1.03 112.69-1.25 113.19-1.25 113.69-1.25 114.49-1.85 115.29-2.45 115.69-4.33 116.09-6.2 116.09-11.55L116.09-11.55ZM139.29-35.9Q139.94-35.9 143.37-35.7 146.79-35.5 156.84-35.5 166.89-35.5 168.99-35.8L168.99-35.8Q169.54-35.8 169.74-35.5 169.94-35.2 169.94-34.95L169.94-34.95 170.24-30.9Q170.24-29.65 170.09-29.33 169.94-29 169.44-29L169.44-29Q169.04-29 168.77-30.03 168.49-31.05 168.19-31.6L168.19-31.6Q167.44-32.9 163.84-32.9L163.84-32.9 157.34-32.9Q156.14-32.9 155.87-32.43 155.59-31.95 155.59-29.7L155.59-29.7 155.59-27.25 155.44-8.95 155.39-5.7Q155.39-3.55 156.06-2.9 156.74-2.25 157.54-1.93 158.34-1.6 158.89-1.55L158.89-1.55Q160.29-1.45 160.29-0.65L160.29-0.65Q160.29-0.1 160.04 0.05 159.79 0.2 159.09 0.2L159.09 0.2 153.54-0.2 148.44 0.15Q146.59 0.15 146.59-0.65L146.59-0.65Q146.59-1.15 146.89-1.33 147.19-1.5 148.06-1.63 148.94-1.75 149.19-1.8L149.19-1.8Q150.89-2.2 151.09-3.8L151.09-3.8Q151.59-8.2 151.59-22.7L151.59-22.7 151.54-31.65Q151.54-32.6 150.99-32.83 150.44-33.05 147.34-33.05 144.24-33.05 142.47-32.85 140.69-32.65 140.39-32.48 140.09-32.3 139.66-31.75 139.24-31.2 138.97-30.48 138.69-29.75 138.59-29.3L138.59-29.3Q138.44-28.15 137.64-28.15L137.64-28.15Q137.09-28.15 137.09-29L137.09-29Q137.09-31 137.34-32.63 137.59-34.25 137.62-34.5 137.64-34.75 137.66-34.83 137.69-34.9 137.72-35.08 137.74-35.25 137.79-35.33 137.84-35.4 137.91-35.52 137.99-35.65 138.09-35.7 138.19-35.75 138.34-35.8L138.34-35.8Q138.64-35.9 139.29-35.9ZM177.29-17.25L177.29-20.1 177.34-25.5Q177.34-29.3 177.04-31.45L177.04-31.45Q176.89-32.7 175.71-33.4 174.54-34.1 173.66-34.1 172.79-34.1 172.51-34.43 172.24-34.75 172.24-34.95L172.24-34.95Q172.24-35.5 173.64-35.5L173.64-35.5 179.29-35.3 183.69-35.4Q184.79-35.4 184.79-34.7L184.79-34.7Q184.79-33.85 183.04-33.85L183.04-33.85Q182.04-33.85 181.59-31.8 181.14-29.75 181.14-27.6L181.14-27.6 181.14-25.75 181.04-21.15Q181.04-19.9 181.34-19.55 181.64-19.2 182.74-19.2L182.74-19.2 190.94-19.25Q190.94-19.25 200.39-19.15L200.39-19.15Q200.94-19.15 200.94-26.1L200.94-26.1 200.94-28.8Q200.94-32.55 199.44-33.4L199.44-33.4Q198.84-33.75 198.21-33.85 197.59-33.95 197.16-34.13 196.74-34.3 196.74-34.8 196.74-35.3 198.69-35.3L198.69-35.3 203.54-35.2 207.44-35.3Q208.59-35.3 208.59-34.65 208.59-34 207.89-34L207.89-34Q206.49-34 205.76-33.15 205.04-32.3 205.04-30.9L205.04-30.9 204.79-11.25 204.79-9.4 204.99-4.8Q204.99-1.55 209.19-1.1L209.19-1.1Q209.79-1.1 209.79-0.55L209.79-0.55Q209.79-0.2 209.29-0.1 208.79 0 207.34 0L207.34 0 203.49-0.25 198.79 0 197.94 0Q197.24 0 197.11-0.2 196.99-0.4 196.99-0.68 196.99-0.95 197.49-1.2 197.99-1.45 198.59-1.6 199.19-1.75 199.74-2.2L199.74-2.2Q200.79-2.95 200.79-6.9L200.79-6.9 200.94-15.75Q200.94-16.5 200.34-16.8 199.74-17.1 198.39-17.1 197.04-17.1 194.34-17L194.34-17 191.64-16.95 182.44-17.1Q181.69-17.1 181.44-16.8 181.19-16.5 181.19-15.25L181.19-15.25 180.99-9.1 180.99-6.95Q180.99-4.8 181.39-3.75 181.79-2.7 183.34-1.7L183.34-1.7Q183.74-1.45 184.79-1.45L184.79-1.45Q186.44-1.45 186.44-0.9L186.44-0.9Q186.44 0 184.84 0L184.84 0 180.69-0.2 175.29 0.05Q172.94 0.05 172.94-0.7L172.94-0.7Q172.94-1.4 174.49-1.6L174.49-1.6Q175.09-1.65 175.74-2.23 176.39-2.8 176.59-3.78 176.79-4.75 177.04-9.05 177.29-13.35 177.29-17.25L177.29-17.25ZM224.63-35.9Q225.28-35.9 228.71-35.7 232.13-35.5 242.18-35.5 252.23-35.5 254.33-35.8L254.33-35.8Q254.88-35.8 255.08-35.5 255.28-35.2 255.28-34.95L255.28-34.95 255.58-30.9Q255.58-29.65 255.43-29.33 255.28-29 254.78-29L254.78-29Q254.38-29 254.11-30.03 253.83-31.05 253.53-31.6L253.53-31.6Q252.78-32.9 249.18-32.9L249.18-32.9 242.68-32.9Q241.48-32.9 241.21-32.43 240.93-31.95 240.93-29.7L240.93-29.7 240.93-27.25 240.78-8.95 240.73-5.7Q240.73-3.55 241.41-2.9 242.08-2.25 242.88-1.93 243.68-1.6 244.23-1.55L244.23-1.55Q245.63-1.45 245.63-0.65L245.63-0.65Q245.63-0.1 245.38 0.05 245.13 0.2 244.43 0.2L244.43 0.2 238.88-0.2 233.78 0.15Q231.93 0.15 231.93-0.65L231.93-0.65Q231.93-1.15 232.23-1.33 232.53-1.5 233.41-1.63 234.28-1.75 234.53-1.8L234.53-1.8Q236.23-2.2 236.43-3.8L236.43-3.8Q236.93-8.2 236.93-22.7L236.93-22.7 236.88-31.65Q236.88-32.6 236.33-32.83 235.78-33.05 232.68-33.05 229.58-33.05 227.81-32.85 226.03-32.65 225.73-32.48 225.43-32.3 225.01-31.75 224.58-31.2 224.31-30.48 224.03-29.75 223.93-29.3L223.93-29.3Q223.78-28.15 222.98-28.15L222.98-28.15Q222.43-28.15 222.43-29L222.43-29Q222.43-31 222.68-32.63 222.93-34.25 222.96-34.5 222.98-34.75 223.01-34.83 223.03-34.9 223.06-35.08 223.08-35.25 223.13-35.33 223.18-35.4 223.26-35.52 223.33-35.65 223.43-35.7 223.53-35.75 223.68-35.8L223.68-35.8Q223.98-35.9 224.63-35.9ZM263.08 0.05L258.93 0 254.63 0.2Q253.18 0.2 253.18-0.4L253.18-0.4Q253.18-1.1 253.93-1.35L253.93-1.35Q255.53-1.95 256.73-4.03 257.93-6.1 262.76-16.57 267.58-27.05 271.33-35.05L271.33-35.05Q271.68-35.8 271.96-36 272.23-36.2 272.76-36.2 273.28-36.2 273.43-36 273.58-35.8 273.98-34.65 274.38-33.5 274.61-32.9 274.83-32.3 275.33-30.95 275.83-29.6 276.93-26.9 278.03-24.2 281.96-15.08 285.88-5.95 286.48-4.73 287.08-3.5 288.13-2.63 289.18-1.75 289.96-1.68 290.73-1.6 291.26-1.43 291.78-1.25 291.78-0.65L291.78-0.65Q291.78 0.1 290.43 0.1L290.43 0.1 285.93-0.2 281.28 0Q279.73 0 279.31-0.13 278.88-0.25 278.88-0.65 278.88-1.05 279.28-1.28 279.68-1.5 280.13-1.58 280.58-1.65 280.98-2.02 281.38-2.4 281.38-3.28 281.38-4.15 280.13-7.55 278.88-10.95 278.03-12.55L278.03-12.55Q277.58-13.4 275.98-13.4L275.98-13.4 269.93-13.3 267.28-13.3Q265.03-13.3 264.46-13.05 263.88-12.8 263.51-12 263.13-11.2 262.43-9.78 261.73-8.35 261.48-7.8 261.23-7.25 260.88-6.4L260.88-6.4Q260.23-4.9 260.23-3.9 260.23-2.9 260.81-2.3 261.38-1.7 262.08-1.6L262.08-1.6Q263.93-1.45 263.93-0.65L263.93-0.65Q263.93-0.3 263.78-0.13 263.63 0.05 263.08 0.05L263.08 0.05ZM270.98-28.5Q270.53-28.5 268.13-22.98 265.73-17.45 265.73-16.85 265.73-16.25 266.18-16.1 266.63-15.95 268.28-15.95L268.28-15.95 269.83-15.95 274.58-16Q276.53-16 276.53-16.73 276.53-17.45 274.08-22.98 271.63-28.5 270.98-28.5L270.98-28.5ZM298.53-11.55L298.53-17.75 298.68-26.4Q298.68-27.75 298.58-30.95L298.58-30.95Q298.53-32.4 297.33-33.2 296.13-34 295.08-34.02 294.03-34.05 293.9-34.23 293.78-34.4 293.78-34.75L293.78-34.75Q293.78-35.65 295.13-35.65L295.13-35.65 296.48-35.55 300.83-35.35 306.08-35.55Q306.93-35.55 306.93-35.05L306.93-35.05Q306.93-34.35 306.33-34.13 305.73-33.9 305-33.83 304.28-33.75 303.6-32.73 302.93-31.7 302.83-29.7 302.73-27.7 302.58-18.75 302.43-9.8 302.43-8.75L302.43-8.75 302.43-6.75Q302.43-3.15 303.65-2.78 304.88-2.4 305.78-2.4L305.78-2.4Q313.28-2.4 316.58-3.6L316.58-3.6Q319.58-4.7 320.18-5.9L320.18-5.9Q320.83-7.15 321.33-7.15L321.33-7.15Q321.93-7.15 321.93-6.3L321.93-6.3Q321.93-4.15 319.78-1.95 317.63 0.25 316.03 0.25L316.03 0.25Q312.43 0.25 307.9 0 303.38-0.25 302.28-0.25L302.28-0.25 296.03 0.15Q294.58 0.15 294.58-0.45L294.58-0.45Q294.58-0.8 294.85-1.03 295.13-1.25 295.63-1.25 296.13-1.25 296.93-1.85 297.73-2.45 298.13-4.33 298.53-6.2 298.53-11.55L298.53-11.55ZM328.88-13.4L328.88-20.1 328.78-25.5 328.78-27.8Q328.78-30.35 328.63-31.5 328.48-32.65 327.35-33.3 326.23-33.95 325.07-34 323.93-34.05 323.93-34.73 323.93-35.4 325.32-35.4L325.32-35.4 330.98-35.3 335.28-35.4Q336.13-35.4 336.13-34.75L336.13-34.75Q336.13-34.45 335.4-34.15 334.68-33.85 334.38-33.7L334.38-33.7Q332.82-32.8 332.82-27.6L332.82-27.6 332.68-19.8Q332.68-18.75 333.07-18.75 333.48-18.75 337.13-21.73 340.78-24.7 344.38-28.18 347.98-31.65 347.98-32.75L347.98-32.75Q347.98-33.35 347.48-33.58 346.98-33.8 346.73-33.88 346.48-33.95 346.03-34.02 345.57-34.1 345.48-34.15L345.48-34.15Q344.93-34.25 344.93-34.83 344.93-35.4 345.73-35.4L345.73-35.4 346.98-35.35 349.98-35.25 356.18-35.4Q357.18-35.4 357.18-34.75L357.18-34.75Q357.18-34.4 356.88-34.23 356.57-34.05 355.73-33.8 354.88-33.55 354.45-33.38 354.03-33.2 351.82-31.8L351.82-31.8Q351.38-31.5 346.9-27.73 342.43-23.95 337.48-19.8L337.48-19.8 336.93-19.1Q336.93-18.85 338.38-17.4 339.82-15.95 345.18-10.65 350.53-5.35 352.57-3.63 354.63-1.9 356.28-1.65 357.93-1.4 358.13-1L358.13-1Q358.18-0.9 358.18-0.58 358.18-0.25 357.75-0.15 357.32-0.05 355.28-0.05L355.28-0.05 350.43-0.05Q349.63-0.05 349.23-0.53 348.82-1 348.43-1.4L348.43-1.4Q346.57-3.55 345.57-4.55L345.57-4.55Q334.98-15.3 334.43-15.75L334.43-15.75Q333.88-16.2 333.48-16.2L333.48-16.2Q332.78-16.2 332.78-14.85L332.78-14.85 332.78-14.7 332.82-13.55 332.82-11Q332.82-4.45 333.68-2.98 334.53-1.5 336.93-1.5L336.93-1.5 337.32-1.45Q337.68-1.45 338.03-1.28 338.38-1.1 338.38-0.7L338.38-0.7Q338.38 0 337.13 0L337.13 0 332.38-0.2 326.88 0.05Q325.07 0.05 325.07-0.5L325.07-0.5 325.07-0.7Q325.07-1.05 325.53-1.2L325.53-1.2Q327.38-1.65 327.95-2.23 328.53-2.8 328.7-5.33 328.88-7.85 328.88-13.4L328.88-13.4Z" opacity="1" transform="matrix(1,0,0,1,0,0)" fill="#5716ce" class="undefined-text-0" data-fill-palette-color="primary" id="text-0"></path></svg></g></svg></g></svg></g></svg></g><g transform="matrix(1,0,0,1,155.459240736386,0)"><svg viewBox="0 0 86.57911852722789 55.77795332586787" height="55.77795332586787" width="86.57911852722789"><g><svg xmlns="http://www.w3.org/2000/svg" xmlns:xlink="http://www.w3.org/1999/xlink" version="1.1" x="8" y="0" viewBox="2.822999954223633 12.981998443603516 94.35400390625 74.56700134277344" enable-background="new 0 0 100 100" xml:space="preserve" height="55.77795332586787" width="70.57911852722789" class="icon-icon-0" data-fill-palette-color="accent" id="icon-0"><path fill="#e12140" d="M49.997 87.549l-36.819-28.54C6.609 54.122 2.823 46.657 2.823 38.552c0-14.1 11.472-25.57 25.573-25.57 8.85 0 16.964 4.573 21.601 11.92 4.638-7.347 12.757-11.92 21.614-11.92 14.098 0 25.566 11.471 25.566 25.57 0 8.111-3.786 15.576-10.388 20.481L49.997 87.549zM28.396 16.981c-11.896 0-21.573 9.676-21.573 21.57 0 6.828 3.198 13.123 8.773 17.271l34.4 26.665 34.375-26.642c5.608-4.167 8.806-10.462 8.806-17.295 0-11.894-9.675-21.57-21.566-21.57-8.586 0-16.35 5.096-19.78 12.983l-1.834 4.216-1.834-4.216C44.733 22.078 36.974 16.981 28.396 16.981z" data-fill-palette-color="accent"></path><polygon points="41.217,50.026 40.455,52.201 27.673,52.201 27.673,48.643 37.931,48.643 40.816,40.402 48.315,57.197   56.207,32.901 62.359,49.532 72.329,49.532 72.329,53.09 59.881,53.09 56.426,43.747 48.84,67.1 " fill="#e12140" data-fill-palette-color="accent"></polygon></svg></g></svg></g><g><rect width="78.92612073638605" height="3.639734727767436" y="51.13821859810044" x="242.03835926361387" fill="#4141ab" data-fill-palette-color="secondary"></rect><rect width="78.92612073638605" height="3.639734727767436" y="51.13821859810044" x="76.53311999999994" fill="#4141ab" data-fill-palette-color="secondary"></rect></g></svg></g></svg></g></svg><rect width="395.52" height="118.2429894195499" fill="none" stroke="none" visibility="hidden"></rect></g></svg></g></svg>