<svg xmlns="http://www.w3.org/2000/svg" version="1.1" xmlns:xlink="http://www.w3.org/1999/xlink" xmlns:svgjs="http://svgjs.dev/svgjs" width="1000" height="318" viewBox="0 0 1000 318"><g transform="matrix(1,0,0,1,-0.6060606060606233,-0.33194759742744395)"><svg viewBox="0 0 396 126" data-background-color="#f6f4fa" preserveAspectRatio="xMidYMid meet" height="318" width="1000" xmlns="http://www.w3.org/2000/svg" xmlns:xlink="http://www.w3.org/1999/xlink"><defs></defs><g id="tight-bounds" transform="matrix(1,0,0,1,0.2400000000000091,0.1315280640742742)"><svg viewBox="0 0 395.52 125.73694552939787" height="125.73694552939787" width="395.52"><g><svg viewBox="0 0 397.4975999999999 126.36563025704484" height="125.73694552939787" width="395.52"><g><rect width="397.4975999999999" height="3.8704123555513372" x="0" y="69.44499529148308" fill="#de31ff" opacity="1" stroke-width="0" stroke="transparent" fill-opacity="1" class="rect-o-0" data-fill-palette-color="secondary" rx="1%" id="o-0" data-palette-color="#de31ff"></rect></g><g transform="matrix(1,0,0,1,0.9887999999999693,83.44737716418452)"><svg viewBox="0 0 395.52 42.91825309286033" height="42.91825309286033" width="395.52"><g><svg viewBox="0 0 395.52 42.91825309286033" height="42.91825309286033" width="395.52"><g><svg viewBox="0 0 395.52 42.91825309286033" height="42.91825309286033" width="395.52"><g transform="matrix(1,0,0,1,0,0)"><svg width="395.52" viewBox="2 -36 335.42999267578125 36.400001525878906" height="42.91825309286033" data-palette-color="#a931ff"><path d="M15.95-1.45Q15.95-0.8 12.93-0.4 9.9 0 6.83 0 3.75 0 2.88-0.35 2-0.7 2-1.45L2-1.45 2-32.2Q2-33.45 4.9-34.48 7.8-35.5 11.2-35.5L11.2-35.5Q15.95-35.5 15.95-33.25L15.95-33.25 15.95-22.25 20.4-22.25 20.4-32.2Q20.4-33.45 23.33-34.48 26.25-35.5 29.65-35.5L29.65-35.5Q34.35-35.5 34.35-33.25L34.35-33.25 34.35-1.45Q34.35-0.8 31.3-0.4 28.25 0 25.2 0 22.15 0 21.28-0.35 20.4-0.7 20.4-1.45L20.4-1.45 20.4-12.9 15.95-12.9 15.95-1.45ZM63.7 0L63.7 0 42.5 0Q40.05 0 39.2-0.35 38.35-0.7 38.35-1.45L38.35-1.45 38.35-33.1Q38.35-34.4 39.52-34.95 40.7-35.5 43.75-35.5L43.75-35.5 63.85-35.5Q64.9-35.5 64.9-32.02 64.9-28.55 64.45-26.73 64-24.9 63.25-24.9L63.25-24.9Q60-24.9 52.3-25.55L52.3-25.55 52.3-22.2Q59.7-22.5 61.95-22.5L61.95-22.5Q63.3-22.5 63.3-19.35 63.3-16.2 62.77-14.58 62.25-12.95 61.35-12.95L61.35-12.95 52.3-13.15 52.3-9.95Q61-10.6 64.3-10.6L64.3-10.6Q65.35-10.6 65.35-7.1 65.35-3.6 64.9-1.8 64.45 0 63.7 0ZM82.64-2.55Q82.55-1.1 81.12-0.55 79.69 0 76 0 72.3 0 69.82-0.68 67.34-1.35 67.34-2.4L67.34-2.4Q67.34-3.6 71.8-17.73 76.25-31.85 76.89-34L76.89-34Q77.14-34.65 80.92-35.08 84.69-35.5 89.02-35.5 93.34-35.5 93.8-34L93.8-34Q103.25-2.6 103.25-2.1 103.25-1.6 102.65-1.1L102.65-1.1Q101.25 0 97.09 0L97.09 0Q88.25 0 88.05-2.1L88.05-2.1 87.69-5.35 82.89-5.35 82.64-2.55ZM83.94-14.85L86.64-14.85 85.89-23.85 84.8-23.85 83.94-14.85ZM128.29 0L109.94 0Q107.44 0 106.59-0.28 105.74-0.55 105.74-1.2L105.74-1.2 105.74-32.3Q105.74-33.4 108.64-34.48 111.54-35.55 115.14-35.55L115.14-35.55Q118.34-35.55 119.34-34.2L119.34-34.2Q119.69-33.7 119.69-33.2L119.69-33.2 119.69-11.05Q125.79-11.45 128.89-11.45L128.89-11.45Q129.94-11.45 129.94-8.13 129.94-4.8 129.49-2.4 129.04 0 128.29 0L128.29 0ZM154.19-1.2Q154.19-0.65 151.12-0.33 148.04 0 144.97 0 141.89 0 141.06-0.28 140.24-0.55 140.24-1.2L140.24-1.2 140.24-22.7 133.29-22.7Q132.74-22.7 132.34-24.1 131.94-25.5 131.94-28.28 131.94-31.05 132.54-33.27 133.14-35.5 134.14-35.5L134.14-35.5 161.19-35.5Q161.94-35.5 162.22-34.1 162.49-32.7 162.49-30.05 162.49-27.4 161.94-25.05 161.39-22.7 160.44-22.7L160.44-22.7 154.19-22.7 154.19-1.2ZM179.44-1.45Q179.44-0.8 176.41-0.4 173.39 0 170.31 0 167.24 0 166.36-0.35 165.49-0.7 165.49-1.45L165.49-1.45 165.49-32.2Q165.49-33.45 168.39-34.48 171.29-35.5 174.69-35.5L174.69-35.5Q179.44-35.5 179.44-33.25L179.44-33.25 179.44-22.25 183.89-22.25 183.89-32.2Q183.89-33.45 186.81-34.48 189.74-35.5 193.14-35.5L193.14-35.5Q197.84-35.5 197.84-33.25L197.84-33.25 197.84-1.45Q197.84-0.8 194.79-0.4 191.74 0 188.69 0 185.64 0 184.76-0.35 183.89-0.7 183.89-1.45L183.89-1.45 183.89-12.9 179.44-12.9 179.44-1.45ZM234.33-1.2Q234.33-0.65 231.26-0.33 228.18 0 225.11 0 222.03 0 221.21-0.28 220.38-0.55 220.38-1.2L220.38-1.2 220.38-22.7 213.43-22.7Q212.88-22.7 212.48-24.1 212.08-25.5 212.08-28.28 212.08-31.05 212.68-33.27 213.28-35.5 214.28-35.5L214.28-35.5 241.33-35.5Q242.08-35.5 242.36-34.1 242.63-32.7 242.63-30.05 242.63-27.4 242.08-25.05 241.53-22.7 240.58-22.7L240.58-22.7 234.33-22.7 234.33-1.2ZM254.43-2.55Q254.33-1.1 252.91-0.55 251.48 0 247.78 0 244.08 0 241.61-0.68 239.13-1.35 239.13-2.4L239.13-2.4Q239.13-3.6 243.58-17.73 248.03-31.85 248.68-34L248.68-34Q248.93-34.65 252.71-35.08 256.48-35.5 260.81-35.5 265.13-35.5 265.58-34L265.58-34Q275.03-2.6 275.03-2.1 275.03-1.6 274.43-1.1L274.43-1.1Q273.03 0 268.88 0L268.88 0Q260.03 0 259.83-2.1L259.83-2.1 259.48-5.35 254.68-5.35 254.43-2.55ZM255.73-14.85L258.43-14.85 257.68-23.85 256.58-23.85 255.73-14.85ZM300.08 0L281.73 0Q279.23 0 278.38-0.28 277.53-0.55 277.53-1.2L277.53-1.2 277.53-32.3Q277.53-33.4 280.43-34.48 283.33-35.55 286.93-35.55L286.93-35.55Q290.13-35.55 291.13-34.2L291.13-34.2Q291.48-33.7 291.48-33.2L291.48-33.2 291.48-11.05Q297.58-11.45 300.68-11.45L300.68-11.45Q301.73-11.45 301.73-8.13 301.73-4.8 301.28-2.4 300.83 0 300.08 0L300.08 0ZM318.68-1.55Q318.68-0.9 315.6-0.5 312.53-0.1 309.48-0.1 306.43-0.1 305.58-0.45 304.73-0.8 304.73-1.55L304.73-1.55 304.73-32.2Q304.73-33.5 307.55-34.5 310.38-35.5 314.08-35.5L314.08-35.5Q317.13-35.5 318.03-34.3L318.03-34.3Q318.68-33.45 318.68-32.75L318.68-32.75 318.68-24.5 319.08-24.5Q319.08-24.75 320.58-28.65L320.58-28.65Q323.43-36 324.73-36L324.73-36Q327.18-36 331.63-34.55L331.63-34.55Q333.78-33.85 335.33-32.52 336.88-31.2 336.88-29.6L336.88-29.6Q336.88-28.6 334.85-25.73 332.83-22.85 328.73-18.05L328.73-18.05Q329.68-17.05 331.13-15.5 332.58-13.95 335-10.88 337.43-7.8 337.43-6.5 337.43-5.2 335.08-3.48 332.73-1.75 330.08-0.68 327.43 0.4 326.13 0.4L326.13 0.4Q325.28 0.4 323.8-2.18 322.33-4.75 320.23-9.9L320.23-9.9 318.68-8.05 318.68-1.55Z" opacity="1" transform="matrix(1,0,0,1,0,0)" fill="#a931ff" class="undefined-text-0" data-fill-palette-color="primary" id="text-0"></path></svg></g></svg></g></svg></g></svg></g><g transform="matrix(1,0,0,1,151.12989024130715,0)"><svg viewBox="0 0 95.2378195173856 59.313025774332985" height="59.313025774332985" width="95.2378195173856"><g><svg xmlns="http://www.w3.org/2000/svg" xmlns:xlink="http://www.w3.org/1999/xlink" version="1.1" x="8" y="0" viewBox="5 16.316001892089844 90 67.3689956665039" enable-background="new 0 0 100 100" xml:space="preserve" height="59.313025774332985" width="79.2378195173856" class="icon-icon-0" data-fill-palette-color="accent" id="icon-0"><g fill="#d02aca" data-fill-palette-color="accent"><path d="M37.346 48.602l-2.069-7.175c3.055-2.671 4.941-6.289 4.941-10.282 0-8.193-7.885-14.829-17.604-14.829C12.881 16.316 5 22.953 5 31.145c0 8.187 7.881 14.819 17.614 14.819 1.853 0 3.632-0.268 5.314-0.724L37.346 48.602z" fill="#d02aca" data-fill-palette-color="accent"></path><path d="M85.024 83.684H95c0-11.22-11.181-20.468-25.645-21.829l-3.887 11.221-3.874-11.184c-14.267 1.488-25.252 10.673-25.252 21.793h37.974c-0.004-0.056-0.011-0.111-0.011-0.169v-4.48H76.9v-3.649h1.317v3.649h6.818v4.48C85.035 83.573 85.028 83.627 85.024 83.684z" fill="#d02aca" data-fill-palette-color="accent"></path><path d="M63.843 58.222c0.66 0.082 1.329 0.139 2.012 0.139 0.435 0 0.862-0.031 1.288-0.065 8.312-0.658 14.851-7.597 14.851-16.073 0-8.912-7.223-16.139-16.139-16.139-8.913 0-16.131 7.228-16.131 16.139C49.723 50.45 55.882 57.229 63.843 58.222z" fill="#d02aca" data-fill-palette-color="accent"></path></g></svg></g></svg></g><g><rect width="74.59677024130718" height="3.8704123555513372" y="54.44261341878165" x="246.36770975869274" fill="#de31ff" data-fill-palette-color="secondary"></rect><rect width="74.59677024130718" height="3.8704123555513372" y="54.44261341878165" x="76.53311999999997" fill="#de31ff" data-fill-palette-color="secondary"></rect></g></svg></g></svg><rect width="395.52" height="125.73694552939787" fill="none" stroke="none" visibility="hidden"></rect></g></svg></g></svg>